{"title":"Inside Planet Earth(2009)MP-4[DaScubaDude]","uid":12350541,"size":938905631,"categoryP":"video","categoryS":"movies","magnet":"?xt=urn:btih:c212564675c1db8bf5b537e5dd4d89b520812648&amp;dn=Inside+Planet+Earth%282009%29MP-4%5BDaScubaDude%5D&amp;tr=udp%3A%2F%2Ftracker.openbittorrent.com%3A80&amp;tr=udp%3A%2F%2Fopen.demonii.com%3A1337&amp;tr=udp%3A%2F%2Ftracker.coppersurfer.tk%3A6969&amp;tr=udp%3A%2F%2Fexodus.desync.com%3A6969","seeders":1,"leechers":0,"uploader":"dascuba","files":1,"time":1441414543,"description":"Inside Planet Earth (2009)\nTV Movie  |  120 min  |  Documentary  |  7 June 2009 (USA)\n7.9 Your rating:   -/10   Ratings: 7.9/10 from 190 users   \nReviews: write review | 2 critic\nA fantastical - but factual - journey to the Centre of the Earth.\n\nDirector: Martin Williams\nWriter: Billie Pink\nStars: Patrick Stewart \n\nGeneral\nComplete name            : C:INSIDE PLANET EARTHINSIDE_PLANET_EARTH_Title1.mp4\nFormat                                   : MPEG-4\nFormat profile                           : Base Media\nCodec ID                                 : isom\nFile size                                : 895 MiB\nDuration                                 : 1h 34mn\nOverall bit rate                         : 1 328 Kbps\nMovie name                               : INSIDE_PLANET_EARTH\nGenre                                    : Science_documentary\nWriting application                      : Lavf54.6.100\n\nVideo\nID                                       : 1\nFormat                                   : AVC\nFormat/Info                              : Advanced Video Codec\nFormat profile                           : Baseline@L3\nFormat settings, CABAC                   : No\nFormat settings, ReFrames                : 6 frames\nCodec ID                                 : avc1\nCodec ID/Info                            : Advanced Video Coding\nDuration                                 : 1h 34mn\nBit rate                                 : 1 193 Kbps\nWidth                                    : 720 pixels\nHeight                                   : 404 pixels\nDisplay aspect ratio                     : 16:9\nFrame rate mode                          : Constant\nFrame rate                               : 29.970 fps\nColor space                              : YUV\nChroma subsampling                       : 4:2:0\nBit depth                                : 8 bits\nScan type                                : Progressive\nBits/(Pixel*Frame)                       : 0.137\nStream size                              : 805 MiB (90%)\n\nAudio\nID                                       : 2\nFormat                                   : AAC\nFormat/Info                              : Advanced Audio Codec\nFormat profile                           : LC\nCodec ID                                 : 40\nDuration                                 : 1h 34mn\nBit rate mode                            : Constant\nBit rate                                 : 128 Kbps\nChannel(s)                               : 2 channels\nChannel positions                        : Front: L R\nSampling rate                            : 44.1 KHz\nCompression mode                         : Lossy\nStream size                              : 86.3 MiB (10%)","torrent":{"xt":"urn:btih:c212564675c1db8bf5b537e5dd4d89b520812648","amp;dn":"Inside+Planet+Earth%282009%29MP-4%5BDaScubaDude%5D","amp;tr":["udp%3A%2F%2Ftracker.openbittorrent.com%3A80","udp%3A%2F%2Fopen.demonii.com%3A1337","udp%3A%2F%2Ftracker.coppersurfer.tk%3A6969","udp%3A%2F%2Fexodus.desync.com%3A6969"],"infoHash":"c212564675c1db8bf5b537e5dd4d89b520812648","infoHashBuffer":{"type":"Buffer","data":[194,18,86,70,117,193,219,139,245,181,55,229,221,77,137,181,32,129,38,72]},"announce":[],"urlList":[]}}